<?xml version="1.0" standalone="no"?><!DOCTYPE svg PUBLIC "-//W3C//DTD SVG 1.1//EN" "http://www.w3.org/Graphics/SVG/1.1/DTD/svg11.dtd"><svg t="1720288715664" class="icon" viewBox="0 0 1047 1024" version="1.1" xmlns="http://www.w3.org/2000/svg" p-id="34096" xmlns:xlink="http://www.w3.org/1999/xlink" width="130.875" height="128"><path d="M206.754909 0h625.780364c109.800727 0 199.098182 89.320727 199.098182 199.121455v625.75709c0 109.800727-89.297455 199.121455-199.098182 199.121455H206.731636C96.977455 1024 7.656727 934.679273 7.656727 824.878545V199.121455C7.633455 89.320727 96.954182 0 206.754909 0z" fill="#170B1A" p-id="34097"></path><path d="M517.725091 309.224727c0.581818-64.302545 0-128.581818 0.581818-192.861091h131.397818c-0.558545 11.380364 1.163636 22.760727 2.839273 33.559273h-96.698182v522.24a124.788364 124.788364 0 0 1-15.941818 63.720727c-17.058909 29.579636-48.919273 50.059636-83.037091 52.898909-21.643636 1.722182-43.822545-2.257455-63.162182-13.079272a108.404364 108.404364 0 0 1-36.980363-33.000728c33.582545 18.781091 77.381818 17.082182 109.800727-3.956363 31.301818-19.362909 51.781818-55.761455 51.781818-93.323637-0.581818-112.058182-0.581818-224.116364-0.581818-336.197818z m216.738909-37.003636c18.222545 11.403636 38.702545 20.48 59.741091 25.041454a170.030545 170.030545 0 0 0 38.120727 3.979637v29.602909c-37.538909-8.541091-72.261818-29.602909-97.861818-58.600727z" fill="#25F4EE" p-id="34098"></path><path d="M286.114909 431.616a238.010182 238.010182 0 0 1 159.278546-33.582545v31.301818c-14.778182 0.558545-28.997818 2.280727-43.799273 5.12a249.483636 249.483636 0 0 0-97.838546 43.799272c-31.301818 23.319273-55.179636 55.179636-71.68 90.461091a243.409455 243.409455 0 0 0-23.342545 108.078546c0 40.96 11.403636 80.779636 30.72 116.619636 9.122909 16.523636 19.362909 32.442182 33.000727 45.521455-27.880727-19.339636-51.2-45.521455-68.258909-75.101091-23.319273-39.237818-34.699636-85.317818-33.559273-131.397818a250.135273 250.135273 0 0 1 35.84-120.040728 240.337455 240.337455 0 0 1 79.639273-80.779636z" fill="#25F4EE" p-id="34099"></path><path d="M545.978182 139.636364h97.28c3.421091 18.781091 10.24 36.398545 18.781091 53.480727 13.661091 26.158545 33.000727 49.477818 58.042182 64.837818a13.288727 13.288727 0 0 1 3.956363 4.002909 186.717091 186.717091 0 0 0 98.443637 58.577455c0.558545 34.141091 0 68.840727 0 102.981818a308.154182 308.154182 0 0 1-180.922182-57.483636c0 81.92 0 163.84 0.581818 245.76 0 10.821818 0.558545 21.643636 0 33.024-2.839273 39.796364-15.36 79.057455-35.281455 113.780363a247.389091 247.389091 0 0 1-68.258909 77.358546c-35.84 26.740364-80.221091 41.518545-124.578909 42.658909-22.760727 0.581818-45.521455-0.558545-67.723636-5.678546a243.572364 243.572364 0 0 1-87.04-38.120727l-1.698909-1.698909c-13.079273-13.079273-23.877818-29.021091-32.977455-45.521455-19.362909-35.258182-30.72-75.636364-30.72-116.596363a245.085091 245.085091 0 0 1 23.319273-108.101818c16.500364-35.281455 40.96-67.141818 71.68-90.461091a249.483636 249.483636 0 0 1 97.838545-43.799273 279.133091 279.133091 0 0 1 43.799273-5.12c0.581818 13.079273 0 26.158545 0.581818 38.679273v66.56c-16.500364-5.678545-34.699636-5.678545-51.781818-1.698909a128.139636 128.139636 0 0 0-55.738182 27.298909 101.841455 101.841455 0 0 0-23.901091 30.161454c-10.24 19.316364-13.637818 42.077091-11.380363 63.697455a107.287273 107.287273 0 0 0 25.041454 57.483636c9.099636 11.357091 21.038545 19.898182 33.000728 27.857455a108.404364 108.404364 0 0 0 36.980363 33.000727c19.316364 10.24 41.518545 14.778182 63.138909 13.079273 34.141091-2.280727 65.978182-23.319273 83.060364-52.898909a124.788364 124.788364 0 0 0 15.918545-63.720728c1.163636-175.220364 0.581818-349.300364 0.581819-523.380363z" fill="#FFFFFF" p-id="34100"></path><path d="M647.074909 139.636364c11.380364 0.558545 22.760727 0 34.699636 0a187.112727 187.112727 0 0 0 34.141091 107.52c2.839273 3.979636 5.678545 7.400727 8.517819 10.798545-25.018182-15.36-44.916364-38.679273-58.01891-64.837818A214.225455 214.225455 0 0 1 647.074909 139.636364z m179.2 180.898909a170.030545 170.030545 0 0 0 38.120727 3.979636v132.561455c-64.861091 0.558545-129.722182-21.038545-182.621091-59.159273V660.712727a229.585455 229.585455 0 0 1-5.678545 59.159273 244.293818 244.293818 0 0 1-96.721455 147.339636 236.753455 236.753455 0 0 1-86.481454 38.702546 240.407273 240.407273 0 0 1-113.757091-1.722182 239.755636 239.755636 0 0 1-115.502545-69.399273 233.984 233.984 0 0 0 87.04 38.120728c22.202182 5.12 44.939636 6.260364 67.723636 5.678545 44.357818-1.140364 88.738909-15.918545 124.578909-42.658909 27.857455-20.48 50.618182-47.220364 68.258909-77.358546 19.898182-34.722909 32.418909-73.960727 35.258182-113.803636 0.581818-10.798545 0.581818-21.597091 0-32.977454-0.558545-81.92-0.558545-163.84-0.558546-245.76a308.130909 308.130909 0 0 0 180.89891 57.460363c-0.558545-34.141091 0-68.840727-0.558546-102.981818z" fill="#FE2C55" p-id="34101"></path><path d="M429.242182 442.181818c12.520727 0 25.6 0.558545 38.120727 2.280727v135.959273a103.866182 103.866182 0 0 0-57.483636-2.280727c-35.84 7.959273-65.978182 35.281455-78.498909 69.981091-12.497455 34.141091-7.377455 73.960727 14.242909 102.958545a119.552 119.552 0 0 1-33.000728-27.857454 107.287273 107.287273 0 0 1-25.041454-57.483637c-2.280727-21.597091 1.163636-44.357818 11.403636-63.697454a101.841455 101.841455 0 0 1 23.877818-30.161455c15.918545-13.637818 35.84-22.178909 55.738182-27.298909 17.082182-3.979636 35.281455-3.979636 51.781818 1.698909v-66.56c-1.163636-11.380364-0.581818-24.436364-1.163636-37.538909z" fill="#FE2C55" p-id="34102"></path></svg>