<?xml version="1.0" standalone="no"?><!DOCTYPE svg PUBLIC "-//W3C//DTD SVG 1.1//EN" "http://www.w3.org/Graphics/SVG/1.1/DTD/svg11.dtd"><svg t="1720289305344" class="icon" viewBox="0 0 1024 1024" version="1.1" xmlns="http://www.w3.org/2000/svg" p-id="74792" xmlns:xlink="http://www.w3.org/1999/xlink" width="128" height="128"><path d="M662.05 441.4625c6.25-1.3875 13.55-2.75 20.6625-4.8625 1.5875-0.4625 2.875-3.4625 3.45-5.5375 2.5-9.1 4.3-18.375 7-27.4 3.85-12.85 20-20.3125 32.575-15.475a6.0125 6.0125 0 0 1 4.025 7.4375c-2.025 9.8625-4.3375 19.675-6.3625 29.55s-3.75 19.7375-5.625 29.2625c6.125-10.925 12.0625-22.1125 18.5875-32.9625a86.25 86.25 0 0 1 22.5-24.2625 47.725 47.725 0 0 1 26.6125-9.825c11.4125-0.6375 20.375 8.2125 19.0375 19.5625-2.375 20.2-5.375 40.3375-7.575 60.5625-1.25 11.975-1.6 24.05-2.3125 36.075-0.1125 1.7875 0 3.5875-0.1 5.3875-0.725 15.8125-14.5625 24.05-29.05 17.3-7.1625-3.3375-10-9.6375-9.5125-16.7875 0.9375-14.275 2.6875-28.5 4.225-42.7375 0.9875-9.0625 2.325-18.0875 3.1875-27.15 0.175-1.8375-1.0625-3.8125-1.6375-5.7125-2 0.7625-4.85 0.9375-5.8375 2.375-6.0375 8.8375-12.8375 17.4375-17.125 27.1125-6.175 13.925-10.4375 28.6875-15.475 43.1-1.25 3.675-2.2875 7.5-3.75 11.075-3 7.35-8.75 10.6125-16.55 10.55s-13.1875-4.175-16.0875-11.3125c-4.4625-10.95-4.4875-22.6-5-34.1375-0.1875-4.0375 0-8.075 0-12.575l-22.2375 3.75a80.65 80.65 0 0 1-12.95 32.025c-18.3125 26.25-52.225 34.0875-77.3 17.3625-4.9375-3.3-9.125-7.7625-13.75-11.725-4.25 4.05-8.5625 8.75-13.4125 12.7a54.7 54.7 0 0 1-38.5125 12.75c-10.8625-0.5125-19.825-7.925-23.5875-19.675-3.85-12.0375-3.3-24.425-2.7375-36.825q0.6375-13.9125 0.575-27.825c0-1.95-1.4875-3.9125-2.2875-5.8625-2 1.175-5 1.875-5.825 3.625-4.6875 9.25-10.175 18.4-12.9 28.275-4.3625 15.775-6.7625 32.0875-10 48.175a90 90 0 0 1-2.275 10c-2.15 6.6125-7.2875 9.8-13.8125 10.85-6.9625 1.1-12.9375-0.7125-17.2-6.7125-6.575-9.2875-8.6625-19.925-9.0625-30.9625-0.525-14.5-0.5625-29.0125-1.25-43.5-0.15-3.2625-1.25-8.6125-3.125-9.2375-4.125-1.3625-6.0875 3.3125-7.825 6.5-8.1375 14.925-11.9375 31.25-14.9 47.7875-1.675 9.2875-2.575 18.75-4.05 28.025-1.975 12.5-7.9375 17.9625-19.0625 18.15a15.1625 15.1625 0 0 1-13.325-6.7875c-1.775-2.5-3.125-5.2625-4.8875-8.275-3.475 3.2875-6.775 6.575-10.25 9.675-17.9875 16.0375-39.15 23.55-63.15 22.8875-16.7125-0.4625-30-7.8625-40-21.25-0.575-0.775-1.15-1.55-2.3375-3.125-6.25 5.225-12.7375 10.1-18.625 15.55-8.4875 7.8625-16.6375 16.075-24.8125 24.2625a38.0375 38.0375 0 0 1-25.6625 11.5c-15.8125 0.9375-25.9-8.2-26.5875-25-0.5125-12.7-0.2125-25.4375-0.425-38.15-0.2625-16.4625-0.3875-32.925-1.125-49.3625-0.8375-18.6625-5.3875-36.675-10.65-54.5125-0.6875-2.3375-1.1375-4.7375-1.7375-7.1-2.9-11.375 0.9125-20.325 10.325-26.7625 9.725-6.65 20.3125-8.4375 30.75-1.95 16.15 10.0625 22.1 25.4 19.4625 43.675-4.125 28.5-9.1625 56.8625-13.6125 85.3125a182.725 182.725 0 0 0-2.425 23.75c-0.1625 7.175 3.9 9.775 10.0875 6.25 14.4125-8.2375 28.475-17.0875 42.5-25.925 0.95-0.6 1.175-3.4 0.7875-4.9375-3.925-15.725-3.85-31.425 1.25-46.7625 8.525-25.6875 25.575-41.9375 52.8875-46.1625a34.7875 34.7875 0 0 1 37.4125 21.3875c8.0875 20.7375 4.6125 39.8-11.3375 55.225-8.4375 8.1625-18.975 14.15-28.625 21.0375-1.9625 1.3875-4.2125 2.375-6.8 3.825a22.2625 22.2625 0 0 0 15 7.5c15.1375 1.4125 27.95-4.3 38.8875-14 6.8875-6.1125 12.7875-13.3875 18.75-20.4625a10.5875 10.5875 0 0 0 2.05-7.1 287.3 287.3 0 0 1 1.85-63.8625c2.5-17.725 16.7375-22.5 29.3625-22.325 4.45 0 6.9125 2.6625 6.5625 7.3-0.85 11.0375-1.875 22.0625-2.6375 33.1a159.0625 159.0625 0 0 0-0.175 24.05c0.7375-2.6125 1.45-5.225 2.2375-7.825 6.025-20 14.0625-38.9125 29.675-53.6375 6.7375-6.35 14.4625-10.6625 23.75-11.25 11.925-0.7625 19.075 5.4625 19.1125 17.5 0 13.5-0.9 27-1.4375 40.5-0.075 1.6125-0.25 3.225-0.3875 4.8375 3.75-9.8625 7.2-19.8125 11.35-29.45 6.075-14.1375 14.9-26.3625 27.3375-35.6875a37.8875 37.8875 0 0 1 19.1625-7.925c11.25-1.15 19.6125 4.6875 20.2375 16.05 0.7 13.1375 0.1125 26.35-0.2125 39.525-0.3 12.0375-1.1375 24.075-1.4375 36.1125-0.125 4.5875 0.3875 9.7375 5.075 11.9375 5 2.35 9.7125-0.1875 13.2125-3.875a139.0125 139.0125 0 0 0 11.45-13.9375c0.95-1.25 0.8-3.675 0.6125-5.5-2.1125-20.7125 0.9-40.5 12.5-58.0375 14.2375-21.525 34.5125-31.7875 60.5-28.675 15.6625 1.8875 27.0875 11.05 34.6625 24.425 4.5875 7.9875 7.4875 16.85 11.4875 26.175z m-56.65-18.375a20.25 20.25 0 0 0-18.075 10c-10 17.5-10.4 36.0125-2.5 53.9875 7.1375 16.25 25.8625 16.8625 35.1875 1.725 3.075-5 4.6-11.0125 6.25-16.7375 0.4-1.3875-0.925-4.025-2.2625-5A43.5125 43.5125 0 0 1 607.05 440c-1.0375-5.55-1.125-11.25-1.65-16.9125zM243.2125 513.75c9.35-3.8875 16.325-9.8125 22.6375-16.65a24.8875 24.8875 0 0 0 6.7125-20.1625c-0.8625-9.2125-8.125-13.9875-16.55-10.2375a18.9125 18.9125 0 0 0-7.7875 6.325c-8.225 12.475-7.9625 26.1625-5.0125 40.725zM718.1875 627.0875c-30.6375 1.25-73.375 2-115.9375 5.0625-96.9375 6.975-192.95 20.6-287.4125 43.8625-14.0375 3.4625-27.85 6.25-41.65 0.6125a51.8375 51.8375 0 0 1-16.25-10.2125c-6.25-6.1-4.9125-13.3 2.5875-17.9375a33.0625 33.0625 0 0 1 10.3875-4.025c42.5-8.9625 84.9125-18.475 127.6125-26.35 31.0375-5.725 62.425-9.65 93.75-13.5375 25-3.1125 50.225-5.15 75.375-7.3 48.9125-4.2 97.9375-6.3625 147.025-5.9875 28.35 0.225 56.7125 1.1125 85 2.2125a40.825 40.825 0 0 1 25.2625 9.3c9.825 8.275 8.65 18.325-3.275 23.05a47.5625 47.5625 0 0 1-17.5 3.075c-24.325-0.1625-48.6-0.975-84.975-1.825zM842.275 443.75a47.8625 47.8625 0 0 1-15.7375-20.9125c-7.7875-20.775-0.2125-44.7 19.275-55.1 27.7375-14.8 56.5375-15.15 83.825 0.9125 20.95 12.3375 23.625 41.3625 6.375 58.75-6.55 6.6-14.55 11.775-21.7625 17.5 3.225 2.5 7.5 5.2125 11.1375 8.5875 20.825 19.0625 18.0875 50.1125-5.7125 66.7875-9.5875 6.7125-20.4625 10-31.875 11.25-19.0125 2.0375-37.825 1.075-55.4-7.5-26.6875-13.0125-31.7875-44.1625-10.425-64.775 6-5.8 13.3125-10.25 20.3-15.5zM875 503.9625c5.4-1.25 11.25-2.1 16.65-4.1 11.775-4.375 13.95-17.85 3.975-25.5375-6.775-5.2375-14.3125-9.5125-21.675-13.9625-1.425-0.8625-4.05-1.3125-5.3375-0.575-5.8875 3.3375-12.25 6.3875-17.0625 10.9875-10.675 10.1875-7.5 24.375 6.25 29.45 5.325 1.9375 11.1 2.45 17.2 3.7375z m12.5-117.25l-0.2375-0.6375c-5.175 1.25-10.575 1.8-15.45 3.75a16.75 16.75 0 0 0-7.5 25.8625c2.8 3.8625 6.9 6.7875 10.525 10 4.65 4.1375 9.525 4.8 14.85 0.9625 4.6-3.325 9.725-5.9625 14.1-9.5375a17.5 17.5 0 0 0 6.25-17.95c-1.425-6.725-6.525-9.8125-12.85-11.0625-3.2125-0.6-6.45-0.9375-9.6875-1.3875z" fill="#212C23" p-id="74793"></path><path d="M1024 512C1024 229.2375 794.7625 0 512 0S0 229.2375 0 512s229.2375 512 512 512 512-229.2375 512-512z m-977.5 0C46.55 255 254.925 46.55 512 46.55S977.5 255 977.5 512 769.075 977.5 512 977.5 46.55 769.075 46.55 512z" fill="#f4ea2a" p-id="74794" data-spm-anchor-id="a313x.search_index.0.i43.55003a81unsuvm" class="selected"></path></svg>